<svg xmlns="http://www.w3.org/2000/svg" xml:space="preserve" x="0" y="0" version="1.1" viewBox="0 0 201 50">
                <style>
                    .st0 {
                        fill: #fff
                    }

                    .st1 {
                        fill: #f5ba0f
                    }
                </style>
    <g><path  d="M72.9 19.9V31h-3l-.3-.8c-.9.7-2.1 1.2-3.4 1.2-3.4 0-5.9-2.5-5.9-6s2.4-5.9 5.9-5.9c1.3 0 2.5.4 3.4 1.2l.4-.9h2.9zm-3.6 5.6c0-1.5-1.1-2.5-2.5-2.5-1.5 0-2.5 1.1-2.5 2.5 0 1.5 1.1 2.5 2.5 2.5s2.5-1.1 2.5-2.5z" class="st0"/>
        <path
                d="M75.2 26.3v-6.4H79v6.2c0 1.2.6 1.9 1.7 1.9 1 0 1.7-.7 1.7-1.9v-6.2h3.8v6.4c0 3.1-2.2 5.2-5.5 5.2-3.3-.1-5.5-2.1-5.5-5.2z"
                class="st0"/>
        <path
                d="M100.3 15.8V31h-2.8l-.4-.8c-.9.8-2.1 1.2-3.4 1.2-3.4 0-5.9-2.5-5.9-6s2.4-6 5.9-6c1 0 2 .3 2.8.8v-4.4h3.8zm-3.6 9.7c0-1.5-1.1-2.6-2.5-2.6s-2.5 1.1-2.5 2.6 1.1 2.6 2.5 2.6c1.5-.1 2.5-1.2 2.5-2.6z"
                class="st0"/>
        <path d="M102.7 19.9h3.8v11.2h-3.8V19.9zm0-4.7h3.8v3.3h-3.8v-3.3z" class="st0"/>
        <path
                d="M108.3 25.5c0-3.5 2.6-6 6.3-6 3.6 0 6.3 2.5 6.3 6s-2.6 6-6.3 6c-3.7-.1-6.3-2.6-6.3-6zm6.3 2.5c1.4 0 2.4-1 2.4-2.5s-1-2.5-2.4-2.5-2.4 1-2.4 2.5c0 1.4 1 2.5 2.4 2.5z"
                class="st0"/>
        <path
                d="M129.2 19.5c3.4 0 5.9 2.5 5.9 5.9 0 3.5-2.4 5.9-5.9 5.9-1.3 0-2.5-.4-3.4-1.2l-.4.8h-2.8V15.8h3.8v4.5c.8-.5 1.8-.8 2.8-.8zm2 6c0-1.5-1.1-2.5-2.5-2.5s-2.5 1.1-2.5 2.5 1.1 2.5 2.5 2.5 2.5-1.1 2.5-2.5z"
                class="st1"/>
        <path
                d="M136.2 25.5c0-3.5 2.6-6 6.3-6 3.6 0 6.3 2.5 6.3 6s-2.6 6-6.3 6c-3.7-.1-6.3-2.6-6.3-6zm6.3 2.5c1.4 0 2.4-1 2.4-2.5s-1-2.5-2.4-2.5-2.4 1-2.4 2.5c0 1.4 1 2.5 2.4 2.5z"
                class="st1"/>
        <path
                d="M149.9 25.5c0-3.5 2.6-6 6.3-6 3.6 0 6.3 2.5 6.3 6s-2.6 6-6.3 6c-3.7-.1-6.3-2.6-6.3-6zm6.2 2.5c1.4 0 2.4-1 2.4-2.5s-1-2.5-2.4-2.5-2.4 1-2.4 2.5c0 1.4 1 2.5 2.4 2.5z"
                class="st1"/>
        <path d="m171 31.1-2.8-4.7v4.7h-3.9V15.8h3.9v8.4l2.7-4.4h4.3l-3.5 5.3 3.8 5.9H171z"
              class="st1"/>
        <path d="M176.4 27.5h3.7v3.6h-3.7v-3.6z" class="st0"/>
        <path
                d="M194.3 19.9V31h-3l-.3-.8c-.9.7-2.1 1.2-3.4 1.2-3.4 0-5.9-2.5-5.9-6s2.4-5.9 5.9-5.9c1.3 0 2.5.4 3.4 1.2l.4-.9h2.9zm-3.7 5.6c0-1.5-1.1-2.5-2.5-2.5-1.5 0-2.5 1.1-2.5 2.5 0 1.5 1.1 2.5 2.5 2.5 1.5 0 2.5-1.1 2.5-2.5z"
                class="st0"/>
        <path d="M196.7 19.9h3.8v11.2h-3.8V19.9zm.1-4.7h3.8v3.3h-3.8v-3.3z" class="st0"/></g>
    <path fill="#e57200"
          d="M11.1 7.2v33.2c0 5.3 4.8 8.8 8.8 6.4l26.5-15.1c5-2.9 5-12.1.5-14.8L20 .8c-4.1-2.4-8.9 1.1-8.9 6.4z"/>
    <path
            d="M44.9 17.8 16.6.8C15.8.4 15 .1 14.1 0c-1.4 0-2.8 0-4.1.1-1.2.1-2.4.3-3.4 1-1.4.9-2.3 2.3-2.7 3.8-.5 1.6-.3 3.3-.3 5v30.5c0 3.4 2.3 7.1 6 7.2H14c.8 0 1.7-.3 2.5-.7l28.3-16.3c4.5-2.6 4.6-10.1.1-12.8z"
            class="st0"/>
    <linearGradient id="_x31__2_" x1="31.61" x2="31.61" y1="50" y2="32.322" gradientUnits="userSpaceOnUse"><stop offset="0" stop-color="#02befe"/>
        <stop offset="1" stop-color="#2c96d4"/></linearGradient>
    <path fill="url(#_x31__2_)" d="m25.2 39.5.1 10.5 6.3-5.4L38 50l-.1-17.7z"/>
    <g><linearGradient id="SVGID_1_" x1="2.989" x2="24.306" y1="46.406" y2="9.483" gradientUnits="userSpaceOnUse"><stop offset="0" stop-color="#f98506"/><stop
            offset=".743" stop-color="#f5ba0f"/></linearGradient>
        <path fill="url(#SVGID_1_)"
              d="M.4 7.2v33.2c0 5.3 4.8 8.8 8.8 6.4l28.3-16.3c4.5-2.6 4.6-10.2.1-12.8L9.3.8C5.3-1.6.4 1.9.4 7.2z"/></g>
    <path
            d="M19.7 30.3c-.9 0-1.8-.6-2.1-1.5l-3.2-8.1c0-.1-.1-.1-.2-.2-.1 0-.2 0-.2.1l-1.7 3.9c-.3.8-1.1 1.3-2 1.3H5.1c-.6 0-1-.5-1-1s.5-1 1-1h5.2l1.7-3.9c.4-.9 1.2-1.4 2.1-1.4.9 0 1.8.6 2.1 1.5l3.2 8.1c0 .1.1.2.2.2s.2-.1.2-.2l1.6-4.2c.3-.9 1.1-1.4 2-1.5.9 0 1.8.5 2.2 1.3h6.2c.6 0 1 .5 1 1 0 .6-.5 1-1 1h-6.1c-.8 0-1.6-.5-1.9-1.2 0-.1-.1-.1-.2-.1s-.2.1-.2.2l-1.6 4.2c-.3.9-1.2 1.5-2.1 1.5z"
            class="st0"/></svg>
