<svg xmlns="http://www.w3.org/2000/svg" xmlns:xlink="http://www.w3.org/1999/xlink" xml:space="preserve" x="0" y="0" version="1.1" viewBox="0 0 446 432"><style>.st1{opacity:.16;fill:#fff}.st2,.st3{opacity:.31;fill:#fff}.st3{opacity:.44}.st4{fill:#130240}.st6{fill:#ced0d8}.st7{fill:#dfe1ea}.st8{fill:#f5ba0f}.st9{fill:#f98a07}.st11{fill:#05bbfb}.st17{fill:#fff}</style><defs><path id="SVGID_1_" d="M0 0h446v432H0z"/></defs><clipPath id="SVGID_2_"><use xlink:href="#SVGID_1_" overflow="visible"/></clipPath><g clip-path="url(#SVGID_2_)"><path d="M19.4 266.2c-6.2.5-13.5 1.4-19.4 2.7 0 0 12.7 24.1 17.6 73.6 5.1 50.8 5 90.5 5 90.5l15.5-.2c0-2.8-.1-46.1-5.6-100.8-3-30.5-8.7-52.4-13.1-65.8z" class="st1"/><path d="M55.6 432.5c1.4-24.9 1.3-47.9.4-68.7-2.7-59-12.4-100.2-17.2-117.2-7.5.6-17.9 1.6-25.9 3.4 0 0 2.8 5.4 6.4 16.2 4.5 13.4 10.2 35.3 13.2 65.9 5.4 54.8 5.6 98 5.6 100.8l24.4-.2c-4.3-.2-6.9-.2-6.9-.2z" class="st2"/><path d="M36.2 237.8s1 3 2.6 8.7c4.8 17 14.6 58.2 17.2 117.2.9 20.8 1 43.8-.4 68.7 0 0 2.5 0 6.9.1l-24.4.2v.2l32.5-.3c41.2.4 153.3 1.2 153.3 1.2l5.3-171s-83.8-22.5-193-25z" class="st3"/><path d="M415.5 256.3c-3 .1-6 .2-8.9.3 10.7 28 35.2 102.9 25.6 176.9H444c11.3-87.9-28.5-177.2-28.5-177.2z" class="st1"/><path d="M406.6 256.5c-2.8-7.4-4.6-11.5-4.6-11.5-9.1.2-17.7.6-26 1.1 10.4 26.7 38.2 107.5 27.9 187.3h28.4c9.5-73.9-15.1-148.9-25.7-176.9z" class="st2"/><path d="M375.9 246.1c-2.3-5.9-3.8-9.2-3.8-9.2-109.2 2.5-164.6 25.9-164.6 25.9l5.3 171h191c0-.1 0-.3.1-.4 10.2-79.8-17.6-160.6-28-187.3z" class="st3"/><path d="m213.4 287-.6-1c.1 0 13-5 37.8-10.1 22.9-4.7 60.9-10.5 112.1-11.5v1.1c-51 .9-88.9 6.7-111.7 11.4-24.7 5.1-37.5 10-37.6 10.1zm5.2 17.9-.6-1c.1 0 13-5 37.8-10.1 22.9-4.7 60.9-10.5 112.1-11.5v1.1c-51 .9-88.9 6.7-111.7 11.4-24.7 5.2-37.5 10.1-37.6 10.1zm5.2 18-.6-1c.1 0 13-5 37.8-10.1 22.9-4.7 60.9-10.5 112.1-11.5v1.1c-51 .9-88.9 6.7-111.7 11.4-24.7 5.1-37.5 10.1-37.6 10.1zm5.1 18-.6-1c.1 0 13-5 37.8-10.1 22.9-4.7 60.9-10.5 112.1-11.5v1.1c-51 .9-88.9 6.7-111.7 11.4-24.7 5.1-37.4 10-37.6 10.1zm5.2 18-.6-1c.1 0 13-5 37.8-10.1 22.9-4.7 60.9-10.5 112.1-11.5v1.1c-51 .9-88.9 6.7-111.7 11.4-24.7 5.1-37.5 10-37.6 10.1zm5.2 17.9-.6-1c.1 0 13-5 37.8-10.1 22.9-4.7 60.9-10.5 112.1-11.5v1.1c-51 .9-88.9 6.7-111.7 11.4-24.7 5.1-37.5 10.1-37.6 10.1zm5.2 18-.6-1c.1 0 13-5 37.8-10.1 22.9-4.7 60.9-10.5 112.1-11.5v1.1c-51 .9-88.9 6.7-111.7 11.4-24.7 5.1-37.5 10-37.6 10.1zm5.1 18-.6-1c.1 0 13-5 37.8-10.1 22.9-4.7 60.9-10.5 112.1-11.5v1.1c-51 .9-88.9 6.7-111.7 11.4-24.6 5.1-37.4 10-37.6 10.1zm-39.3-126.9.6-1c-.1 0-13-5-37.8-10.1-22.9-4.7-60.9-10.5-112.1-11.5v1.1c51 .9 88.9 6.7 111.7 11.4 24.7 5.1 37.4 10 37.6 10.1zm6.8 20.2.6-1c-.1 0-13-5-37.8-10.1-22.9-4.7-60.9-10.5-112.1-11.5v1.1c51 .9 88.9 6.7 111.7 11.4 24.7 5.1 37.5 10 37.6 10.1zm4.2 20.6.6-1c-.1 0-13-5-37.8-10.1-22.9-4.7-60.9-10.5-112.1-11.5v1.1c51 .9 88.9 6.7 111.7 11.4 24.7 5.1 37.4 10 37.6 10.1zm1.9 18.7.6-1c-.1 0-13-5-37.8-10.1-22.9-4.7-60.9-10.5-112.1-11.5v1.1c51 .9 88.9 6.7 111.7 11.4 24.7 5.1 37.5 10 37.6 10.1zm1.6 20.9.6-1c-.1 0-13-5-37.8-10.1-22.9-4.7-60.9-10.5-112.1-11.5v1.1c51 .9 88.9 6.7 111.7 11.4 24.7 5.2 37.5 10.1 37.6 10.1zm1.3 19.7.6-1c-.1 0-13-5-37.8-10.1-22.9-4.7-60.9-10.5-112.1-11.5v1.1c51 .9 88.9 6.7 111.7 11.4 24.6 5.1 37.4 10 37.6 10.1zm1.6 19 .6-1c-.1 0-13-5-37.8-10.1-22.9-4.7-60.9-10.5-112.1-11.5v1.1c51 .9 88.9 6.7 111.7 11.4 24.7 5.1 37.5 10 37.6 10.1zm1.6 21 .6-1c-.1 0-13-5-37.8-10.1-22.9-4.7-60.9-10.5-112.1-11.5v1.1c51 .9 88.9 6.7 111.7 11.4 24.7 5.1 37.5 10.1 37.6 10.1z" class="st4"/><linearGradient id="SVGID_3_" x1="169.357" x2="191.811" y1="274.839" y2="290.257" gradientUnits="userSpaceOnUse"><stop offset="0" stop-color="#02befe"/><stop offset="1" stop-color="#2c96d4"/></linearGradient><path fill="url(#SVGID_3_)" d="M173 271.5s.8 5.2 7.6 7.6c6.3 2.2 9.9.9 10.3.4 1.8 2.7-1.3 13.9-1.3 13.9s-16.6-1.8-23.3-13c1.3-4.9 6.7-8.9 6.7-8.9z"/><ellipse cx="147.8" cy="147.9" class="st6" rx="13.5" ry="36.7" transform="rotate(-5.062 147.771 147.923)"/><path d="m147.2 172.8 4.1 11.6 11.2-.2-5-13.4zm-4.6-52.4 1.7-9 11.7-.2" class="st6"/><ellipse cx="159.3" cy="147.7" class="st7" rx="13.5" ry="36.7" transform="rotate(-5.062 159.259 147.678)"/><path d="M237 214.8s-3.7 30.2 6.6 38.3c10.3 8.1 24.2 9.4 24.2 9.4s-13.2 47.6-50.6 49.4c-46.2 2.2-45.7-52.8-45.7-52.8s18.4-.8 23.3-10.7c4.9-9.9 3-29 3-29l39.2-4.6z" class="st8"/><path d="M154.2 59.3c-.6 47.5-6.3 98.5 17.7 141.6 6.3 11.2 15.7 28.3 28.9 32.3 21.1 6.3 41.2.8 58.7-23 17.4-23.8 22-48.9 24.9-77.2 2.9-28.3-2.1-92-25.4-96.4s-78.8-9.9-104.8 22.7z" class="st8"/><path d="M237.2 238.5c-.4-2.5-.6-5.2-.7-7.7-11.3 5.7-23.3 6-35.6 2.3-.9-.3-1.8-.6-2.6-1-.1 2.8-.4 5.9-.9 8.7.8.4 1.6.7 2.5.9 12.8 4 25.4 3.4 37.3-3.2z" class="st9"/><linearGradient id="SVGID_4_" x1="55.773" x2="96.1" y1="-143.092" y2="-143.092" gradientTransform="matrix(.7064 .1432 -.1987 .9801 202.123 237.014)" gradientUnits="userSpaceOnUse"><stop offset="0" stop-color="#02befe"/><stop offset="1" stop-color="#2c96d4"/></linearGradient><path fill="url(#SVGID_4_)" d="M274.8 80.9s7.8 26.5 2.9 50.4c-4.9 24 5.1 26 12.1 12.1 5.7-11.4 15.2-61.2 11-74.5-4.3-13.3-26 12-26 12z"/><g id="left_arm_2_"><path id="arm_part1_4_" d="M288.6 311.9s10.8-31.4 29.2-35.3c0 0 9.5 2.2 12.6 35.3 3 33.1 8.5 103 8.5 104.1 0 10.6-9 19.1-20.1 19.1-9 0-16.7-5.7-19.2-13.5 0 0-16.3-73.1-11-109.7z" class="st11"/></g><g id="right_arm_2_"><path id="arm_part1_1_" d="M143.9 421.2c.1-27.7 7.3-74.5 1.9-111.1 0 0-10.8-31.4-29.2-35.3 0 0-9.5 2.2-12.6 35.3s.4 104.1.4 105.2c0 10.6 9 19.1 20.1 19.1 9 .1 19.4-13.2 19.4-13.2z" class="st11"/></g><path fill="#2c96d4" d="M120 305.5c9 8.3 12.6 16.4 17.1 27.7 9.8 26.6 15.4 91.6 9.6 148.5 14.5 4.5 49.9 7.7 68.2 7.4 19.6-.4 61.2-2.9 69.3-7.4-.3-39.5 4.1-116.7 12.2-147.5h.1c2.6-9.3 5.7-17.1 12-24.3 3.7-4.3 8-8.4 10.1-13.7 2.2-5.7 4.6-15.6-1.1-20.2-7.4-6-48-16.1-63.7-17.6 0 0 .2.5.2.7.1.9.1 1.7 0 2.6-3.9 7.7-21.7 38.6-37.7 38.6-16.1 0-34.9-34-38.1-42.2-15.7 1.6-55.9 11.8-63.3 17.8-7.3 6.1-1.5 23.5 5.1 29.6zm58-45.9.2-1.4c.1.1 0 .6-.2 1.4z"/><path d="M269.3 110.4c-4.9-3-18-8.9-36.3-1.9-1 .4-1.6 1.5-1.2 2.5v.2c.3 1.1 1.4 1.7 2.5 1.4 5.7-1.5 22.6-5 32.8 1.4.8.5 1.9.4 2.6-.3.9-1 .7-2.6-.4-3.3zm-104.8 1.3c4.9-3.1 17.9-9.2 36.2-2.4 1 .4 1.6 1.5 1.3 2.5v.2c-.3 1.1-1.4 1.7-2.5 1.5-5.7-1.4-22.6-4.7-32.8 1.8-.8.5-1.9.4-2.6-.3-1-1-.8-2.6.4-3.3z" class="st4"/><linearGradient id="SVGID_5_" x1="466.641" x2="699.266" y1="-132.192" y2="-209.599" gradientTransform="rotate(11.46 -766.334 -1998.996)" gradientUnits="userSpaceOnUse"><stop offset="0" stop-color="#02befe"/><stop offset="1" stop-color="#2c96d4"/></linearGradient><path fill="url(#SVGID_5_)" d="M316.3 60.6c-4.6-37.4-42-32.9-42-32.9s21.1-14 34.6 3.4c0 0-5.9-48.7-70.6-18 0 0-61.2-34.3-97.8 8.1-8.1 9.4-15.3 17.4-21.7 24-16.7 5.4-30.3 3.7-30.3 3.7 3.1 6.8 6.3 11.3 9.8 14.2-11.3 7.4-20 7.6-28.6 1 0 0 10.8 76.6 77.6 63.9 47.8-9.1 29.9-59.5 81-75.1 7 3.4 15.5 9.4 15.8 18.9.5 16.4-9.6 23.9-9.6 23.9S261.7 84 256 64.6c-1.2-4.1-3-7.6-5-10.5 6.4 2.5 12.2 7.3 13.3 16.6 2.7 22.5-18.8 32.7-18.8 32.7s75.3-5.3 70.8-42.8z"/><linearGradient id="SVGID_6_" x1="3794.354" x2="3849.132" y1="-177.035" y2="-161.13" gradientTransform="rotate(-23.132 2621.276 8646.573)" gradientUnits="userSpaceOnUse"><stop offset="0" stop-color="#fff"/><stop offset="1" stop-color="#eff0f8"/></linearGradient><path fill="url(#SVGID_6_)" d="M237.7 13c35.2 11 42.6 77.6 38.8 119l15.5-13.8s9.8-99.9-47.3-111.4c-3.9-.8-14.9-2.1-19.4.9 6.3 2.1 12.4 5.3 12.4 5.3z"/><ellipse cx="283.3" cy="150" class="st6" rx="36.7" ry="13.5" transform="rotate(-84.077 283.283 150.004)"/><path d="m283.1 125.1 4.3-11.5 11.2.4-5.2 13.3zm-5.4 52.4 1.6 9 11.7.4" class="st6"/><ellipse cx="294.8" cy="150.4" class="st7" rx="36.7" ry="13.5" transform="rotate(-84.077 294.765 150.42)"/><linearGradient id="SVGID_7_" x1="1082.635" x2="1118.618" y1="360.596" y2="371.044" gradientTransform="matrix(.5404 .05605 -.1032 .9947 -255.891 -275.133)" gradientUnits="userSpaceOnUse"><stop offset="0" stop-color="#fff"/><stop offset="1" stop-color="#eff0f8"/></linearGradient><path fill="url(#SVGID_7_)" d="M291.5 149.4c-1.5 14.5 1.6 26.7 7 27.3 5.4.6 10.9-10.7 12.4-25.2s-1.6-26.7-7-27.3-10.9 10.7-12.4 25.2z"/><linearGradient id="SVGID_8_" x1="1244.739" x2="1244.739" y1="-211.082" y2="-211.082" gradientTransform="scale(-1 1) rotate(13.038 -942.409 -6348.67)" gradientUnits="userSpaceOnUse"><stop offset="0" stop-color="#fff"/><stop offset="1" stop-color="#eff0f8"/></linearGradient><path d="M246.3 133.1c-4.8 0-10-.9-14.7-3.7-.3-.2-.4-.6-.2-.9.2-.3.6-.4.9-.2 13 7.8 31.1.1 31.2 0 .3-.1.7 0 .9.3.1.3 0 .7-.3.9-.6.2-8.6 3.6-17.8 3.6zm-64.3.8c-3.5 0-7.1-.6-10.5-2.2-.3-.2-.5-.6-.3-.9.2-.3.6-.5.9-.3 12.3 5.9 27.9-2.6 28.1-2.7.3-.2.7-.1.9.3.2.3.1.7-.3.9-.5.2-9.1 4.9-18.8 4.9z" class="st4"/><path d="M232.1 163.1c-7.3 6.3-25 5.8-29.6 0 0 0 1.3 11.1 14.9 10.8 13.3-.3 14.7-10.8 14.7-10.8z" class="st9"/><path d="M113 388.8c-4.6 14.2-5.9 54.3 21 44.5 24.4-9 24.8-41.1 32-80.4 7.2-39.3 12.1-82.2 12.1-82.2l-22.8-10c0 .1-33.1 99.7-42.3 128.1z" class="st11"/><path d="m198.6 405.2-6.8-26.9 31-7.7 9 33.7z" class="st4"/><path d="M214.7 433c-14.4-1.3-24.7-16.1-18.8-20.6 0 0-5.4-2.2-4.9-7.6.4-5.4 5.8-6.3 9.4-5.4s11.2 2.2 16.6.9c5.4-1.3 12.2-3.6 11.2-8.5-.9-4.5-1.8-8.1-1.8-8.1s.4-1.3 9.4 6.3 11.7 22.9 7.2 31c-17.8 5.8-13.9 13.4-28.3 12z" class="st8"/><path d="m180.9 641-.3-1.3c12.1-3.2 24.8-16.4 34.8-36.2 19.3-38.5 30.9-109.9.5-184.6-5.8-14.2-8-39.2-6.5-74.4 1.1-26.1 4-48.3 4-48.6l.1-.6.7.1c.1 0 6.1.6 14.2-2.9 7.5-3.2 18.5-10.5 28-27.4 12.1-21.5 23.3-78 23.4-78.6l1.3.3c-.1.6-11.3 57.3-23.5 79-9.7 17.3-21 24.7-28.8 28-7 2.9-12.3 3-14.1 3-1 8-10.6 89.6 2.5 121.6 13.6 33.3 20.1 69.5 18.7 104.5-1.1 29.9-8 58.7-19.2 81.2-10.3 20.1-23.3 33.6-35.8 36.9z" class="st17"/><path d="M213.5 297c-11-.7-20.9-7.1-29.3-19-6.7-9.5-12.5-22.5-17.3-38.7-8.1-27.5-10.5-54.9-10.5-55.2l1.3-.1c0 .3 2.4 27.6 10.4 55 4.7 16 10.5 28.9 17.1 38.2 8.2 11.6 17.7 17.8 28.3 18.4v1.4z" class="st17"/><path d="M185.6 221.9S173.1 205.4 168 204c-3.5-6.7-4.4-19.9-6.6-28.2-2.7-10.1-4.8-5.2-9 15.8-2.7 13.6 9.1 28.2 11 37.1 1.9 8.9-6 33-6 33s11.6 8.4 19 8.1c1.3-23.5 29.4-29.6 9.2-47.9zm53.2 176 20.4 3.3-4.1 20.7-12.1-1z" class="st8"/><path d="M316.1 394.7c13.4-.4 16.6 9.7 15.7 26.3s-1.3 18.3-86.6 5.7c0 0 13.9-14.8 3.1-34.1.1 0 24.4 3.2 67.8 2.1z" class="st11"/></g></svg>
