<svg xmlns="http://www.w3.org/2000/svg" xml:space="preserve" x="0" y="0" version="1.1" viewBox="0 0 325 205"><style>.st0{fill:#f5ba0f}.st1{fill:#fff}</style><path d="m266.9 37.2-1.3-.9c-1-.7-1.2-2.1-.5-3l9.8-13.5c.7-1 2.1-1.2 3-.5l1.3.9c1 .7 1.2 2.1.5 3l-9.9 13.5c-.6 1-2 1.2-2.9.5z" class="st0"/><path d="m264 33.7-1-.7c-1-.7-1.2-2.1-.5-3.1l8.5-11.6c.7-1 2.1-1.2 3.1-.5l1 .7c.2.2.3.5.1.7l-10.4 14.3c-.2.3-.5.4-.8.2z" class="st1"/><path d="M261.7 29.1c-.7-.5-.9-1.6-.4-2.3l6.3-8.7c.5-.7 1.6-.9 2.3-.4l-8.2 11.4z" class="st0"/><path d="M261.7 30.2c-.3-.2-.4-.6-.2-.8.6-1.1 10.3-14.3 10.7-14.9 2.3-3.2 5.2-5.9 8.5-8 3.2-2 6.7-3.4 10.3-4.1s7.3-.7 10.8 0c3.7.7 7 2.3 10 4.5.3.2.4.6.1.9-.2.3-.6.4-.9.1-11.6-8.5-28.6-5.2-37.8 7.4-2.6 3.5-10.1 13.9-10.6 14.7-.2.3-.6.4-.9.3.1-.1.1-.1 0-.1z" class="st1"/><path d="m296.8 59 1.2 1c1 .7 2.3.5 3-.5l9.8-13.5c.7-1 .5-2.3-.5-3l-1.3-.9c-1-.7-2.3-.5-3 .5L296.3 56c-.7 1-.5 2.3.5 3z" class="st0"/><path d="m300.9 60.7 1 .7c1 .7 2.4.5 3.1-.5l8.5-11.6c.7-1 .5-2.4-.5-3.1l-1-.7c-.2-.2-.6-.1-.7.1l-10.5 14.3c-.2.3-.2.6.1.8z" class="st1"/><path d="M306 61.5c.7.5 1.8.4 2.3-.4l6.3-8.7c.5-.7.4-1.8-.4-2.3L306 61.5z" class="st0"/><path d="M304.9 61.8c.3.2.6.2.9-.1.9-.9 10.5-14.1 10.9-14.7 2.3-3.2 4.1-6.8 5.1-10.6 1-3.7 1.3-7.4.8-11.1-.4-3.7-1.5-7.1-3.3-10.3-1.8-3.3-4.3-6-7.3-8.2-.3-.2-.7-.2-.9.1-.2.3-.2.7.1.9 11.6 8.5 13.6 25.7 4.4 38.3-2.6 3.5-10.2 13.9-10.8 14.6-.3.3-.2.7 0 .9l.1.2z" class="st1"/><path d="M282.1 7.3c-.3-.2-.5-.5-.7-.8-.6-1.1-.2-2.4.9-3C287.2 1 292.6-.2 297.9 0c5.5.3 10.7 2.1 15 5.3 4.4 3.2 7.6 7.6 9.6 12.7 1.9 5 2.3 10.4 1.4 15.8-.2 1.2-1.4 2-2.6 1.8-.4-.1-.7-.2-.9-.4-.6-.5-1-1.3-.9-2.1 1.6-9.6-1.9-18.8-9.2-24.2-7.3-5.3-17.2-5.9-25.8-1.3-.8.3-1.7.2-2.4-.3z" class="st0"/><path d="m1.6 205-1-.1c.8-14.1 17.8-50.4 38.2-61 21.2-10.9 40-4.2 67.4 12 26.9 16 63.7 14.5 98.5-4 35.8-19 46.3-47.7 48.1-53.2 1.3-4.3.7-6-.6-9.7-1.1-3.1-2.8-7.8-4.1-16.7-2.8-19.1 14-41.6 14.2-41.9l.8.6c-.2.2-16.8 22.4-14 41.1 1.3 8.7 2.9 13.2 4.1 16.5 1.4 3.8 2.1 5.8.6 10.4-1.8 5.6-12.4 34.6-48.6 53.8-35.1 18.6-72.3 20.1-99.5 4-27.1-16.1-45.7-22.7-66.5-12-20.4 10.6-37 47.7-37.6 60.2z" class="st1"/><path d="M258.2 92.1c-3 0-4.9-.2-5-.2l.1-1c.2 0 16.2 1.9 28-5.5 11.8-7.5 21.6-24.5 21.7-24.7l.9.5c-.1.2-10 17.4-22 25-8 5.1-17.9 5.9-23.7 5.9z" class="st1"/></svg>
