<svg xmlns="http://www.w3.org/2000/svg" xml:space="preserve" viewBox="0 0 36 41"><linearGradient id="a" x1="6.98" x2="6.98" y1="41" y2="0" gradientUnits="userSpaceOnUse"><stop offset="0" stop-color="#f98506"/><stop offset=".743" stop-color="#f5ba0f"/></linearGradient><path fill="url(#a)" d="M7 41C3.4 41 .5 38.1.5 34.5v-28C.5 2.9 3.4 0 7 0s6.5 2.9 6.5 6.5v28.1c-.1 3.5-3 6.4-6.5 6.4z"/><linearGradient id="b" x1="29.02" x2="29.02" y1="41" y2="0" gradientUnits="userSpaceOnUse"><stop offset="0" stop-color="#f98506"/><stop offset=".743" stop-color="#f5ba0f"/></linearGradient><path fill="url(#b)" d="M29 41c-3.6 0-6.5-2.9-6.5-6.5v-28c.1-3.6 3-6.5 6.5-6.5 3.6 0 6.5 2.9 6.5 6.5v28.1c0 3.5-2.9 6.4-6.5 6.4z"/></svg>