<svg xmlns="http://www.w3.org/2000/svg" xml:space="preserve" id="Слой_1" x="0" y="0" version="1.1" viewBox="0 0 191 191"><style>.st0{fill:#f5ba0f}.st1{fill:#fff}</style><path d="m33.2 86.3-3-3c-2.2-2.3-2.2-5.9 0-8.2l31.5-31.2c2.3-2.2 5.9-2.2 8.2 0l3 3c2.2 2.3 2.2 5.9 0 8.2L41.3 86.4c-2.2 2.2-5.9 2.2-8.1-.1z" class="st0"/><path d="M27.2 76.1 25 73.8c-2.3-2.3-2.3-6 0-8.3l27.1-26.8c2.3-2.3 6-2.3 8.3 0l2.2 2.3c.5.6.5 1.5 0 2L29.2 76.1c-.5.5-1.4.5-2 0z" class="st1"/><path d="M22.9 63c-1.7-1.7-1.7-4.6 0-6.3l20.3-20.1c1.7-1.7 4.6-1.7 6.3 0L22.9 63z" class="st0"/><path d="M22.6 65.9c-.6-.6-.7-1.6-.1-2.3 2.1-2.7 33-33.2 34.3-34.5 7.5-7.5 16.2-13.4 25.8-17.5 9.2-4 18.9-6.2 28.8-6.5 9.9-.3 19.4 1.2 28.4 4.6 9.3 3.5 17.5 8.9 24.5 15.9.7.7.7 1.8 0 2.5s-1.8.7-2.5 0c-27-27.3-73-25.7-102.4 3.5-8.3 8.2-32.4 32.2-34 34.2-.6.8-1.7.9-2.5.3-.2-.1-.2-.1-.3-.2z" class="st1"/><path d="m102.5 156.3 3 3c2.2 2.3 5.9 2.3 8.2 0l31.5-31.2c2.3-2.2 2.3-5.9 0-8.2l-3-3c-2.2-2.3-5.9-2.3-8.2 0l-31.5 31.2c-2.2 2.3-2.2 5.9 0 8.2z" class="st0"/><path d="m112.7 162.3 2.2 2.3c2.3 2.3 6 2.3 8.3 0l27.1-26.8c2.3-2.3 2.3-6 0-8.3l-2.2-2.3c-.5-.6-1.4-.6-2 0l-33.5 33.1c-.5.6-.5 1.5.1 2z" class="st1"/><path d="M125.8 166.7c1.7 1.7 4.6 1.8 6.3 0l20.3-20.1c1.7-1.7 1.8-4.6 0-6.3l-26.6 26.4z" class="st0"/><path d="M122.8 167c.6.6 1.6.7 2.3.1 2.7-2.1 33.5-32.7 34.8-34 7.5-7.5 13.5-16.1 17.7-25.6 4.1-9.2 6.4-18.9 6.8-28.7.4-9.9-1-19.4-4.4-28.4-3.4-9.3-8.7-17.6-15.7-24.6-.7-.7-1.8-.7-2.5 0s-.7 1.8 0 2.5c27 27.3 25 73.2-4.5 102.4-8.3 8.2-32.5 32.1-34.5 33.7-.8.6-.9 1.7-.3 2.5.2 0 .2.1.3.1z" class="st1"/><path d="M85.8 14.4c-.6-.6-1.1-1.4-1.4-2.3-1-3.1.6-6.4 3.7-7.5C102 0 116.6-.9 130.4 2c14.3 3 27.2 9.9 37.3 20.1 10.1 10.2 16.9 23.1 19.8 37.3 2.8 13.8 1.7 28.3-3 42.1-1 3.1-4.4 4.7-7.5 3.7-.9-.3-1.7-.8-2.3-1.4-1.5-1.5-2.1-3.9-1.4-6 8.3-24.4 2.9-50.2-14-67.3C142.2 13.3 116.4 7.7 91.8 16c-2.1.6-4.4-.1-6-1.6z" class="st0"/><path d="M3.9 190.7 2 190c.1-.2 7.9-24 7-41.6-.1-2.3-.3-4.8-.6-7.5-1.6-19.4-4-48.6 13.7-75.1l1.7 1.1C6.5 92.8 8.9 121.7 10.4 140.7c.2 2.7.4 5.3.6 7.5 1 18.1-7 42.2-7.1 42.5zm93.1-.4h-2c0-6.2 9.7-12.5 18.3-18.1 3.9-2.6 7.7-5 9-6.6l1.6 1.3c-1.5 1.9-5.2 4.2-9.4 7-7.5 4.8-17.5 11.3-17.5 16.4z" class="st1"/></svg>