<svg xmlns="http://www.w3.org/2000/svg" xml:space="preserve" x="0" y="0" version="1.1" viewBox="0 0 286 138"><style>.st1{fill:#e57200}.st5{fill:#fff}</style><path d="M2.4 77.3c-1.3 0-2.4-1.1-2.4-2.4V63.1c0-1.3 1.1-2.4 2.4-2.4s2.4 1.1 2.4 2.4v11.7c0 1.4-1 2.5-2.4 2.5zM14.1 87c-1.3 0-2.4-1.1-2.4-2.4V53.4c0-1.3 1.1-2.4 2.4-2.4s2.4 1.1 2.4 2.4v31.1c.1 1.4-1 2.5-2.4 2.5zm11.8-4.5c-1.3 0-2.4-1.1-2.4-2.4V57.9c0-1.3 1.1-2.4 2.4-2.4s2.4 1.1 2.4 2.4v22.2c0 1.3-1.1 2.4-2.4 2.4zM37.6 87c-1.3 0-2.4-1.1-2.4-2.4V53.4c0-1.3 1.1-2.4 2.4-2.4 1.3 0 2.4 1.1 2.4 2.4v31.1c0 1.4-1.1 2.5-2.4 2.5zm11.7 8.3c-1.3 0-2.4-1.1-2.4-2.4V45.2c0-1.3 1.1-2.4 2.4-2.4s2.4 1.1 2.4 2.4v47.7c0 1.3-1.1 2.4-2.4 2.4zM61 92.2c-1.3 0-2.4-1.1-2.4-2.4V48.2c0-1.3 1.1-2.4 2.4-2.4 1.3 0 2.4 1.1 2.4 2.4v41.6c0 1.3-1.1 2.4-2.4 2.4zm11.7-9.7c-1.3 0-2.4-1.1-2.4-2.4V57.9c0-1.3 1.1-2.4 2.4-2.4 1.3 0 2.4 1.1 2.4 2.4v22.2c0 1.3-1 2.4-2.4 2.4zm11.7 12.8c-1.3 0-2.4-1.1-2.4-2.4V45.2c0-1.3 1.1-2.4 2.4-2.4s2.4 1.1 2.4 2.4v47.7c.1 1.3-1 2.4-2.4 2.4zm11.7-5.1c-1.3 0-2.4-1.1-2.4-2.4V50.2c0-1.3 1.1-2.4 2.4-2.4s2.4 1.1 2.4 2.4v37.6c.1 1.3-1 2.4-2.4 2.4zm11.8-12.1c-1.3 0-2.4-1.1-2.4-2.4V62.3c0-1.3 1.1-2.4 2.4-2.4s2.4 1.1 2.4 2.4v13.3c0 1.4-1.1 2.5-2.4 2.5zm11.7 10.5c-1.3 0-2.4-1.1-2.4-2.4V51.8c0-1.3 1.1-2.4 2.4-2.4 1.3 0 2.4 1.1 2.4 2.4v34.3c0 1.4-1.1 2.5-2.4 2.5zm11.7 0c-1.3 0-2.4-1.1-2.4-2.4V51.8c0-1.3 1.1-2.4 2.4-2.4 1.3 0 2.4 1.1 2.4 2.4v34.3c0 1.4-1.1 2.5-2.4 2.5zm11.7 6.7c-1.3 0-2.4-1.1-2.4-2.4V45.2c0-1.3 1.1-2.4 2.4-2.4s2.4 1.1 2.4 2.4v47.7c0 1.3-1.1 2.4-2.4 2.4zM154.7 85c-1.3 0-2.4-1.1-2.4-2.4V55.5c0-1.3 1.1-2.4 2.4-2.4 1.3 0 2.4 1.1 2.4 2.4v27.1c0 1.3-1 2.4-2.4 2.4zm11.7-4.9c-1.3 0-2.4-1.1-2.4-2.4V60.3c0-1.3 1.1-2.4 2.4-2.4 1.3 0 2.4 1.1 2.4 2.4v17.4c.1 1.3-1 2.4-2.4 2.4zm11.7 10.1c-1.3 0-2.4-1.1-2.4-2.4V50.2c0-1.3 1.1-2.4 2.4-2.4 1.3 0 2.4 1.1 2.4 2.4v37.6c.1 1.3-1 2.4-2.4 2.4zm11.8 5.1c-1.3 0-2.4-1.1-2.4-2.4V45.2c0-1.3 1.1-2.4 2.4-2.4 1.3 0 2.4 1.1 2.4 2.4v47.7c0 1.3-1.1 2.4-2.4 2.4zm11.7-9.5c-1.3 0-2.4-1.1-2.4-2.4V54.7c0-1.3 1.1-2.4 2.4-2.4 1.3 0 2.4 1.1 2.4 2.4v28.7c0 1.3-1.1 2.4-2.4 2.4zm11.7 0c-1.3 0-2.4-1.1-2.4-2.4V54.7c0-1.3 1.1-2.4 2.4-2.4 1.3 0 2.4 1.1 2.4 2.4v28.7c0 1.3-1.1 2.4-2.4 2.4zm11.7-8.5c-1.3 0-2.4-1.1-2.4-2.4V63.1c0-1.3 1.1-2.4 2.4-2.4 1.3 0 2.4 1.1 2.4 2.4v11.7c0 1.4-1.1 2.5-2.4 2.5zm11.7 14.9c-1.3 0-2.4-1.1-2.4-2.4V48.2c0-1.3 1.1-2.4 2.4-2.4s2.4 1.1 2.4 2.4v41.6c0 1.3-1 2.4-2.4 2.4zm11.7-8.9c-1.3 0-2.4-1.1-2.4-2.4V57.1c0-1.3 1.1-2.4 2.4-2.4 1.3 0 2.4 1.1 2.4 2.4v23.8c.1 1.4-1 2.4-2.4 2.4zm11.7 5.7c-1.3 0-2.4-1.1-2.4-2.4V51.4c0-1.3 1.1-2.4 2.4-2.4 1.3 0 2.4 1.1 2.4 2.4v35.1c.1 1.4-1 2.5-2.4 2.5zm11.8-3.6c-1.3 0-2.4-1.1-2.4-2.4V55.1c0-1.3 1.1-2.4 2.4-2.4 1.3 0 2.4 1.1 2.4 2.4V83c0 1.3-1.1 2.4-2.4 2.4zm11.7-4.9c-1.3 0-2.4-1.1-2.4-2.4V59.9c0-1.3 1.1-2.4 2.4-2.4s2.4 1.1 2.4 2.4v18.2c0 1.3-1.1 2.4-2.4 2.4z" class="st1" opacity=".5"/><path d="M143 21.3v84.4c0 16.8-18.2 26.9-32 17.7L47.3 80.7c-12.5-8.4-12.4-27.3.2-35.6l63.7-41.7C125-5.5 143 4.6 143 21.3zm0 0v84.4c0 16.8 18.2 26.9 32 17.7l63.7-42.7c12.5-8.4 12.4-27.3-.2-35.6L174.8 3.5C161-5.5 143 4.6 143 21.3z" class="st1"/><linearGradient id="SVGID_1_" x1="141.712" x2="44.227" y1="63.503" y2="63.503" gradientUnits="userSpaceOnUse"><stop offset="0" stop-color="#fff"/><stop offset="1" stop-color="#cad5e7"/></linearGradient><path fill="url(#SVGID_1_)" d="M141.7 25.3v76.4c0 15.2-16.9 24.4-29.7 16L52.9 79.1c-11.6-7.6-11.5-24.7.2-32.2l59.1-37.7c12.8-8.2 29.5 1 29.5 16.1z"/><linearGradient id="SVGID_2_" x1="144.288" x2="241.773" y1="63.503" y2="63.503" gradientUnits="userSpaceOnUse"><stop offset="0" stop-color="#fff"/><stop offset="1" stop-color="#cad5e7"/></linearGradient><path fill="url(#SVGID_2_)" d="M144.3 25.3v76.4c0 15.2 16.9 24.4 29.7 16L233.1 79c11.6-7.6 11.5-24.7-.2-32.2L173.8 9.1C161 1 144.3 10.2 144.3 25.3z"/><linearGradient id="SVGID_3_" x1="144.396" x2="233.291" y1="63.503" y2="63.503" gradientUnits="userSpaceOnUse"><stop offset="0" stop-color="#fff"/><stop offset="1" stop-color="#e5ebf4"/></linearGradient><path fill="url(#SVGID_3_)" d="M144.4 25.3v76.4c0 15.2 15.4 24.4 27.1 16L225.4 79c10.6-7.6 10.5-24.7-.2-32.2L171.3 9.1c-11.7-8.1-26.9 1.1-26.9 16.2z"/><path d="M144.8 25.3v76.4c0 15.2 13.8 24.4 24.2 16L217.2 79c9.5-7.6 9.4-24.7-.2-32.2L168.9 9.1c-10.4-8.1-24.1 1.1-24.1 16.2z" class="st5"/><linearGradient id="SVGID_4_" x1="-901.249" x2="-812.353" y1="63.503" y2="63.503" gradientTransform="matrix(-1 0 0 1 -759 0)" gradientUnits="userSpaceOnUse"><stop offset="0" stop-color="#fff"/><stop offset="1" stop-color="#e5ebf4"/></linearGradient><path fill="url(#SVGID_4_)" d="M142.2 25.3v76.4c0 15.2-15.4 24.4-27.1 16L61.3 79.1c-10.6-7.6-10.5-24.7.2-32.2l53.9-37.7c11.6-8.2 26.8 1 26.8 16.1z"/><path d="M141.8 25.3v76.4c0 15.2-13.8 24.4-24.2 16L69.4 79.1c-9.5-7.6-9.4-24.7.2-32.2l48.2-37.7c10.4-8.2 24 1 24 16.1z" class="st5"/><path fill="#cccedb" d="M143.4 104.1c-.7 0-1.3-.6-1.3-1.3V24.2c0-.7.6-1.3 1.3-1.3.7 0 1.3.6 1.3 1.3v78.6c0 .7-.6 1.3-1.3 1.3z"/><linearGradient id="SVGID_5_" x1="195.285" x2="149.334" y1="33.002" y2="33.002" gradientUnits="userSpaceOnUse"><stop offset="0" stop-color="#130240"/><stop offset="1" stop-color="#cad5e7"/></linearGradient><path fill="url(#SVGID_5_)" d="m194.6 39.7-8.6-1.2c-.7-.1-1.2-.5-1.5-1.1l-1.5-3.3c-.1-.3-.4-.4-.5-.4-.1 0-.4 0-.6.3l-1.6 2.5c-.4.6-1.1 1-1.9.9l-6.2-.9c-.6-.1-1.1-.4-1.4-.9l-5.1-7.9c-.1-.2-.3-.3-.5-.3s-.4.1-.5.2l-5.3 6.1c-.4.5-1.1.7-1.7.7l-7.9-1.1c-.4 0-.6-.4-.6-.7 0-.4.4-.6.7-.6l7.9 1.1c.2 0 .4-.1.6-.2l5.3-6.1c.4-.5 1-.7 1.6-.7.6 0 1.2.4 1.5.9l5.1 7.9c.1.2.3.3.5.3l6.2.9c.3 0 .5-.1.6-.3l1.6-2.5c.4-.6 1-1 1.8-.9.7 0 1.3.5 1.6 1.1l1.5 3.3c.1.2.3.3.5.4l8.5 1.2c.4 0 .6.4.6.7-.1.4-.3.6-.7.6z"/><linearGradient id="SVGID_6_" x1="201.942" x2="149.334" y1="47.127" y2="47.127" gradientUnits="userSpaceOnUse"><stop offset="0" stop-color="#130240"/><stop offset="1" stop-color="#cad5e7"/></linearGradient><path fill="url(#SVGID_6_)" d="M201.3 50.9s-.1 0 0 0l-51.4-6.3c-.4 0-.6-.4-.6-.7 0-.4.4-.6.7-.6l51.3 6.3c.4 0 .6.4.6.7 0 .4-.3.6-.6.6z"/><linearGradient id="SVGID_7_" x1="211.39" x2="149.334" y1="59.297" y2="59.297" gradientUnits="userSpaceOnUse"><stop offset="0" stop-color="#130240"/><stop offset="1" stop-color="#cad5e7"/></linearGradient><path fill="url(#SVGID_7_)" d="M178.6 64.9c-.9 0-1.7-.3-2.3-1l-4.8-5.1c-.3-.3-.7-.5-1.2-.6L150 55.6c-.4 0-.6-.4-.6-.7 0-.4.4-.6.7-.6l20.3 2.6c.7.1 1.4.4 1.9 1l4.8 5.1c.7.7 1.8.8 2.6.2l4.3-3.5c.7-.5 1.6-.8 2.4-.7l4.1.5c.5.1 1-.1 1.4-.3l7-4.9c1.3-.9 3-.8 4.1.3l8.1 7.7c.3.2.3.7 0 .9-.2.3-.7.3-.9 0l-8.1-7.7c-.7-.6-1.7-.7-2.4-.2l-7 4.9c-.7.5-1.5.7-2.3.6l-4.1-.5c-.5-.1-1 .1-1.5.4l-4.3 3.5c-.5.5-1.2.7-1.9.7z"/><linearGradient id="SVGID_8_" x1="210.531" x2="149.334" y1="69.991" y2="69.991" gradientUnits="userSpaceOnUse"><stop offset="0" stop-color="#130240"/><stop offset="1" stop-color="#cad5e7"/></linearGradient><path fill="url(#SVGID_8_)" d="M209.9 74.6s-.1 0 0 0l-60-7.9c-.4 0-.6-.4-.6-.7s.4-.6.7-.6l59.9 7.9c.4 0 .6.4.6.7 0 .3-.3.6-.6.6z"/><linearGradient id="SVGID_9_" x1="195.285" x2="149.334" y1="77.927" y2="77.927" gradientUnits="userSpaceOnUse"><stop offset="0" stop-color="#130240"/><stop offset="1" stop-color="#cad5e7"/></linearGradient><path fill="url(#SVGID_9_)" d="m194.6 83.9-13-1.8c-.8-.1-1.5-.5-2-1.1l-6.2-7.1c-.7-.8-1.8-.9-2.7-.3l-6.4 5.1c-.7.5-1.6.8-2.4.7l-12-1.7c-.4 0-.6-.4-.6-.7 0-.4.4-.6.7-.6l12 1.7c.5.1 1.1-.1 1.5-.4l6.4-5.1c1.4-1.1 3.3-.9 4.4.4l6.2 7.1c.3.4.7.6 1.2.7l13 1.8c.4 0 .6.4.6.7-.1.4-.3.6-.7.6z"/><linearGradient id="SVGID_10_" x1="186.911" x2="149.334" y1="91.137" y2="91.137" gradientUnits="userSpaceOnUse"><stop offset="0" stop-color="#130240"/><stop offset="1" stop-color="#cad5e7"/></linearGradient><path fill="url(#SVGID_10_)" d="M186.3 94.7h-.1l-36.3-5.9c-.4-.1-.6-.4-.5-.7.1-.4.4-.6.7-.5l36.3 5.9c.4.1.6.4.5.7 0 .3-.3.5-.6.5z"/><linearGradient id="SVGID_11_" x1="-1067.644" x2="-1113.595" y1="35.538" y2="35.538" gradientTransform="matrix(-1 0 0 1 -976.5 0)" gradientUnits="userSpaceOnUse"><stop offset="0" stop-color="#130240"/><stop offset="1" stop-color="#cad5e7"/></linearGradient><path fill="url(#SVGID_11_)" d="M91.8 39.7c-.3 0-.6-.2-.6-.6 0-.4.2-.7.6-.7l8.6-1.2c.3 0 .6-.2.9-.4l4.4-4.5c1-1 2.7-1.1 3.8-.2l3.6 3c.3.3.7.4 1.2.3l12.3-1.7c.7-.1 1.4.1 2 .5l2.4 1.7c.6.4 1.4.3 1.9-.2l3.2-3.1c.3-.2.7-.2.9 0 .2.3.2.7 0 .9l-3.2 3.1c-1 .9-2.4 1-3.5.3l-2.4-1.7c-.3-.2-.7-.3-1.1-.2l-12.3 1.7c-.8.1-1.6-.1-2.2-.6l-3.6-3c-.6-.5-1.5-.4-2 .1l-4.4 4.5c-.4.4-1 .7-1.6.8l-8.9 1.2z"/><linearGradient id="SVGID_12_" x1="-1060.988" x2="-1113.595" y1="47.128" y2="47.128" gradientTransform="matrix(-1 0 0 1 -976.5 0)" gradientUnits="userSpaceOnUse"><stop offset="0" stop-color="#130240"/><stop offset="1" stop-color="#cad5e7"/></linearGradient><path fill="url(#SVGID_12_)" d="M85.1 50.9c-.3 0-.6-.2-.6-.6 0-.4.2-.7.6-.7l51.3-6.3c.4 0 .7.2.7.6 0 .4-.2.7-.6.7l-51.4 6.3c.1 0 .1 0 0 0z"/><linearGradient id="SVGID_13_" x1="-1051.54" x2="-1113.595" y1="57.137" y2="57.137" gradientTransform="matrix(-1 0 0 1 -976.5 0)" gradientUnits="userSpaceOnUse"><stop offset="0" stop-color="#130240"/><stop offset="1" stop-color="#cad5e7"/></linearGradient><path fill="url(#SVGID_13_)" d="M75.7 63.4c-.2 0-.3-.1-.4-.2-.3-.2-.3-.7 0-.9l4.2-4.3c1-1.1 2.7-1.1 3.8-.2l2.8 2.4c.3.3.8.4 1.2.4l15.2-1.9c.4 0 .7-.2.9-.5l5.7-6.4c.5-.6 1.2-.9 2-.9s1.5.2 2 .8l4.7 4.5c.3.3.8.5 1.2.4l17.4-2.2c.4 0 .7.2.7.6 0 .4-.2.7-.6.7l-17.4 2.2c-.8.1-1.7-.2-2.3-.8l-4.7-4.5c-.3-.3-.7-.4-1.1-.4-.4 0-.8.2-1.1.5l-5.7 6.4c-.4.5-1.1.8-1.7.9l-15.2 1.9c-.8.1-1.6-.1-2.2-.7l-2.8-2.4c-.6-.5-1.5-.5-2.1.1L76 63.2c0 .1-.1.2-.3.2z"/><linearGradient id="SVGID_14_" x1="-1052.399" x2="-1113.595" y1="69.991" y2="69.991" gradientTransform="matrix(-1 0 0 1 -976.5 0)" gradientUnits="userSpaceOnUse"><stop offset="0" stop-color="#130240"/><stop offset="1" stop-color="#cad5e7"/></linearGradient><path fill="url(#SVGID_14_)" d="M76.5 74.6c-.3 0-.6-.2-.6-.6 0-.4.2-.7.6-.7l59.9-7.9c.4 0 .7.2.7.6 0 .4-.2.7-.6.7l-60 7.9c.1 0 .1 0 0 0z"/><linearGradient id="SVGID_15_" x1="-1067.644" x2="-1113.595" y1="78.564" y2="78.564" gradientTransform="matrix(-1 0 0 1 -976.5 0)" gradientUnits="userSpaceOnUse"><stop offset="0" stop-color="#130240"/><stop offset="1" stop-color="#cad5e7"/></linearGradient><path fill="url(#SVGID_15_)" d="M91.8 83.9c-.3 0-.6-.2-.6-.6 0-.4.2-.7.6-.7l16.8-2.3c.3 0 .6-.2.8-.5l3.5-5.5c.4-.7 1.2-1.1 2-1.1s1.5.4 1.9 1l2.7 4c.2.3.6.5 1 .5l15.9-2.2c.3 0 .7.2.7.6 0 .4-.2.7-.6.7L120.6 80c-.9.1-1.8-.3-2.3-1l-2.7-4c-.2-.3-.5-.5-.9-.5s-.7.2-.9.5l-3.5 5.5c-.4.6-1 1-1.7 1.1l-16.8 2.3z"/><linearGradient id="SVGID_16_" x1="-1076.018" x2="-1113.595" y1="91.137" y2="91.137" gradientTransform="matrix(-1 0 0 1 -976.5 0)" gradientUnits="userSpaceOnUse"><stop offset="0" stop-color="#130240"/><stop offset="1" stop-color="#cad5e7"/></linearGradient><path fill="url(#SVGID_16_)" d="M100.2 94.7c-.3 0-.6-.2-.6-.5-.1-.4.2-.7.5-.7l36.3-5.9c.4-.1.7.2.7.5.1.4-.2.7-.5.7l-36.3 5.9h-.1z"/><linearGradient id="SVGID_17_" x1="156.789" x2="143.094" y1="69.537" y2="69.537" gradientUnits="userSpaceOnUse"><stop offset="0" stop-color="#02befe"/><stop offset="1" stop-color="#2c96d4"/></linearGradient><path fill="url(#SVGID_17_)" d="M156.8 1.2v136.7l-6.3-11-6.7 6.3-.7-118.2c0-.1 3.1-12.5 13.7-13.8z"/></svg>
