<svg xmlns="http://www.w3.org/2000/svg" xmlns:xlink="http://www.w3.org/1999/xlink" xml:space="preserve" x="0" y="0" version="1.1" viewBox="0 0 136 254"><style>.st1{fill:#ced0d8}.st2{fill:#dfe1ea}.st3{fill:#f5ba0f}.st4{fill:#f98a07}.st6{fill:#05bbfb}.st8{fill:#fff}.st9{fill:#130240}</style><defs><path id="SVGID_1_" d="M0 0h136v254H0z"/></defs><clipPath id="SVGID_2_"><use xlink:href="#SVGID_1_" overflow="visible"/></clipPath><g clip-path="url(#SVGID_2_)"><ellipse cx="33" cy="88.1" class="st1" rx="19.9" ry="7.3" transform="rotate(-87.273 32.997 88.09) scale(1.00003)"/><path d="m30.9 101.4 1.3 6.5 6 .7-1.7-7.5zm1.3-28.5 1.6-4.7 6.3.8" class="st1"/><ellipse cx="39.2" cy="88.8" class="st2" rx="19.9" ry="7.3" transform="rotate(-87.273 39.177 88.8) scale(1.00003)"/><path d="M80 119.2s-2 16.3 3.6 20.7c5.6 4.4 13.1 5.1 13.1 5.1s-7.1 25.8-27.4 26.7c-25 1.2-24.8-28.6-24.8-28.6s10-.5 12.6-5.8c2.7-5.3 1.6-15.7 1.6-15.7l21.3-2.4z" class="st3"/><path d="M48.1 29.9S37.7 44.2 37.8 53.4c.1 9.3.8 15.9-3.7 25.5-3.5 7.4 4.1 40.6 14.5 46.5s21.6 5.5 33.8-5 19-24.1 25.3-38.1c6.3-14 7.4-48.4-4.4-53.5s-37.5-12.9-55.2 1.1z" class="st3"/><path d="M56.6 138.1c.2-.3.4-.6.5-.9 1.1-2.2 1.6-5.2 1.8-8.1 6.6 1.1 13.5-.2 20.8-6.5-.1 1.3-.1 2.2-.1 4.1-1.3 1.4-2.7 2.7-4.2 4-6.5 5.7-12.8 7.9-18.8 7.4z" class="st4"/><linearGradient id="SVGID_3_" x1="572.943" x2="594.778" y1="-47.792" y2="-47.792" gradientTransform="matrix(.6558 .2989 -.4147 .91 -294.83 -61.516)" gradientUnits="userSpaceOnUse"><stop offset="0" stop-color="#02befe"/><stop offset="1" stop-color="#2c96d4"/></linearGradient><path fill="url(#SVGID_3_)" d="M106.2 54.3s.9 14.9-4.6 26.9c-5.5 12-.5 14.3 4.9 7.9 4.4-5.3 15.5-30.4 14.9-38-.6-7.5-15.2 3.2-15.2 3.2z"/><g id="left_arm_1_"><path id="arm_part2_3_" d="M110.5 202.5c0-5.7 4.9-10.3 10.9-10.3s10.9 4.6 10.9 10.3v.1c.8 9 3.9 45.4 3.8 53.4 0 0-13.5 1.3-21.8 0-.1-.1-3.8-52.5-3.8-53.5z" class="st6"/><path id="arm_part1_3_" d="M110.9 205.5s-5.9-13.9-3-33.8c0 0 5.8-17 15.8-19.1 0 0 5.2 1.2 6.8 19.1s1.7 30.1 1.7 30.7c0 5.7-4.9 10.3-10.9 10.3-4.8.1-9-2.9-10.4-7.2z" class="st6"/></g><g id="right_arm_1_"><path id="arm_part2_2_" d="M28.1 201.5c0-5.7-4.9-10.3-10.9-10.3s-10.9 4.6-10.9 10.3v.1c-.8 9-3.9 45.4-3.8 53.4 0 0 13.5 1.3 21.8 0 0 0 3.8-52.4 3.8-53.5z" class="st6"/><path id="arm_part1_2_" d="M27.6 204.6s5.9-13.9 3-33.8c0 0-5.8-17-15.8-19.1 0 0-5.2 1.2-6.8 19.1s-1.7 30.1-1.7 30.7c0 5.7 4.9 10.3 10.9 10.3 4.9.1 9-3 10.4-7.2z" class="st6"/></g><path fill="#2c96d4" d="M16.6 168.3c4.9 4.5 6.8 8.9 9.2 15 5.3 14.4 8.3 49.6 5.2 80.4 7.9 2.4 27 4.2 36.9 4 10.6-.2 33.1-1.6 37.5-4-.2-21.4 2.2-63.2 6.6-79.9 1.4-5.1 3.1-9.2 6.5-13.2 2-2.3 4.3-4.5 5.4-7.4 1.2-3.1 2.5-8.4-.6-10.9-4-3.2-26-8.7-34.5-9.5 0 0 .1.3.1.4v1.4c-2.1 4.2-11.7 20.9-20.4 20.9s-18.9-18.4-20.6-22.8c-8.5.8-30.3 6.4-34.3 9.7-3.7 3.2-.5 12.6 3 15.9zm31.5-24.8s.1-.7.1-.8c0 .1 0 .4-.1.8z"/><path d="M49.6 350c6.8-1.8 13.8-9.1 19.3-20 6.1-12.2 9.8-27.8 10.4-44 .7-19-2.8-38.6-10.1-56.6-7.1-17.5-1.8-62.1-1.3-65.9 2-.4 14.8-3.7 23.2-16.7 7.3-11.3 9.8-36.6 9.9-36.8l-.7-.1c0 .3-2.5 25.3-9.8 36.5-8.8 13.7-22.8 16.4-23 16.4h-.3v.3c0 .1-1.6 12.2-2.2 26.3-.8 19 .4 32.6 3.5 40.3 16.5 40.5 10.2 79.1-.3 100-5.4 10.8-12.2 17.9-18.8 19.6l.2.7z" class="st8"/><path d="M67.2 163.7v-.7c-5.7-.3-10.9-3.4-15.3-9.1-3.6-4.6-6.7-10.9-9.2-18.8-4.3-13.4-5.6-26.8-5.6-27l-.7.1c0 .1 1.3 13.6 5.6 27.1 2.6 8 5.7 14.4 9.3 19 4.7 5.9 10 9.1 15.9 9.4z" class="st8"/><path d="M90.9 65.1c-2.2-2.2-8.4-6.9-18.9-5.5-.6.1-1 .6-1 1.2v.1c0 .6.5 1.1 1.2 1.1 3.2-.1 12.5.1 17.1 4.7.4.4.9.4 1.4.2.7-.5.7-1.3.2-1.8zm-51.6-7.4c2.8-1.4 10.1-4.1 19.7.5.5.3.8.9.6 1.4v.1c-.2.6-.8.9-1.4.7-3-1-12-3.7-17.8-.7-.5.2-1 .1-1.4-.3-.5-.6-.3-1.4.3-1.7z" class="st9"/><linearGradient id="SVGID_4_" x1="888.109" x2="1014.063" y1="-41.891" y2="-83.802" gradientTransform="rotate(24.499 286.196 -2054.126)" gradientUnits="userSpaceOnUse"><stop offset="0" stop-color="#02befe"/><stop offset="1" stop-color="#2c96d4"/></linearGradient><path fill="url(#SVGID_4_)" d="M130.6 48.6c2.2-20.3-18.1-22.5-18.1-22.5s12.8-4.8 17.8 6c0 0 2.8-26.4-35-18.1 0 0-28.1-25.6-52.6-7.7-5.4 4-10.2 7.3-14.4 10-9.5.8-16.4-1.8-16.4-1.8.8 4 1.9 6.7 3.4 8.7-6.9 2.5-11.5 1.6-15.2-3 0 0-3.6 41.7 33.1 43.2 26.3 1.1 23.1-27.7 51.9-29.7 3.3 2.6 7 6.8 6 11.9-1.7 8.7-8 11.4-8 11.4s15.8-2.8 15.2-13.8c-.1-2.3-.6-4.4-1.4-6.1 3.1 2.1 5.5 5.3 5 10.4C100.6 59.8 88 62.6 88 62.6s40.4 6.3 42.6-14z"/><linearGradient id="SVGID_5_" x1="3943.017" x2="3972.676" y1="181.406" y2="190.018" gradientTransform="rotate(-10.101 1234.973 21948.148)" gradientUnits="userSpaceOnUse"><stop offset="0" stop-color="#fff"/><stop offset="1" stop-color="#eff0f8"/></linearGradient><path fill="url(#SVGID_5_)" d="M95 13.9c17.2 10.1 13 46.1 5.9 67.5l9.9-5.4s17.4-51.5-11.3-64.6c-2-.9-7.6-2.9-10.3-1.9 2.9 2 5.8 4.4 5.8 4.4z"/><ellipse cx="104.5" cy="90.9" class="st1" rx="19.9" ry="7.3" transform="rotate(-78.246 104.528 90.944)"/><path d="m105.8 77.5 2.9-6 6 .9-3.5 6.9zm-5.8 27.9.4 5 6.2.8" class="st1"/><ellipse cx="110.7" cy="91.8" class="st2" rx="19.9" ry="7.3" transform="rotate(-78.246 110.691 91.8)"/><linearGradient id="SVGID_6_" x1="2769.09" x2="2788.572" y1="249.26" y2="254.917" gradientTransform="matrix(.5319 .1107 -.2037 .979 -1312.658 -462.156)" gradientUnits="userSpaceOnUse"><stop offset="0" stop-color="#fff"/><stop offset="1" stop-color="#eff0f8"/></linearGradient><path fill="url(#SVGID_6_)" d="M109 91.1c-1.6 7.7-.6 14.5 2.3 15.1 2.9.6 6.5-5.2 8.1-12.9s.6-14.5-2.3-15.1c-2.9-.6-6.5 5.1-8.1 12.9z"/><linearGradient id="SVGID_7_" x1="690.428" x2="690.428" y1="67.484" y2="67.484" gradientTransform="matrix(-1 0 0 1 749.945 0)" gradientUnits="userSpaceOnUse"><stop offset="0" stop-color="#fff"/><stop offset="1" stop-color="#eff0f8"/></linearGradient><path d="M81.6 74.8c2.4 0 4.1-.3 4.3-.3.2 0 .3-.2.3-.4s-.2-.3-.4-.3c-.1 0-10.6 1.9-16.5-3.8-.1-.1-.4-.1-.5 0-.1.1-.1.4 0 .5 3.7 3.6 9 4.3 12.8 4.3zM50.3 69c3.3 0 6-.7 6.2-.8.2-.1.3-.3.3-.5s-.3-.3-.5-.3c-.1 0-9.3 2.6-15.1-2-.2-.1-.4-.1-.5.1-.1.2-.1.4.1.5 2.8 2.4 6.4 3 9.5 3z" class="st9"/><path d="M65.1 91.3c-5.6 1.9-14.1 1.4-15.8-2.2 0 0-1.2 6.2 6 6.9s9.8-4.7 9.8-4.7z" class="st4"/></g></svg>
