<?xml version="1.0" encoding="utf-8"?>
<!-- Generator: Adobe Illustrator 23.1.0, SVG Export Plug-In . SVG Version: 6.00 Build 0)  -->
<svg version="1.1" id="audoibook" xmlns="http://www.w3.org/2000/svg" xmlns:xlink="http://www.w3.org/1999/xlink" x="0px" y="0px"
	 viewBox="0 0 116 48" style="enable-background:new 0 0 116 48;" xml:space="preserve">
<style type="text/css">
	.st0{fill:#FFFFFF;}
</style>
<path id="line_1_" class="st0" d="M62.7,47.8c-3.8,0-7.2-2.3-8.6-5.9L41.2,9.1c-0.2-0.4-0.5-0.6-0.9-0.6c-0.5,0-0.7,0.2-0.9,0.6
	l-6.7,15.8c-1.4,3.2-4.5,5.2-7.9,5.2H4.1C1.9,30.1,0,28.3,0,26s1.9-4.1,4.1-4.1h20.6c0.1,0,0.2-0.1,0.3-0.2l6.7-15.8
	c1.5-3.5,4.9-5.7,8.6-5.6c3.8,0.1,7.1,2.4,8.5,5.9l12.9,32.8c0.2,0.4,0.5,0.6,0.9,0.6c0,0,0,0,0,0c0.4,0,0.7-0.2,0.9-0.6L70,21.7
	c1.3-3.5,4.5-5.8,8.3-6c3.8-0.2,7.1,1.9,8.7,5.3l0,0c0.1,0.1,0.2,0.2,0.3,0.2h24.6c2.3,0,4.1,1.9,4.1,4.1s-1.9,4.1-4.1,4.1H87.3
	c-3.3,0-6.3-1.9-7.8-4.9l0,0C79.3,24.2,79,24,78.6,24c-0.4,0-0.7,0.2-0.9,0.6l-6.4,17.1C70,45.4,66.6,47.7,62.7,47.8
	C62.7,47.8,62.7,47.8,62.7,47.8z"/>
</svg>
