<svg xmlns="http://www.w3.org/2000/svg" xmlns:xlink="http://www.w3.org/1999/xlink" xml:space="preserve" x="0" y="0" version="1.1" viewBox="0 0 193 185"><style>.st1{fill:#2c96d4}.st2{fill:#130240}.st3{fill:#05bbfb}.st4{fill:#f5ba0f}.st5{fill:#dfe1ea}.st6{fill:#f98a07}</style><defs><path id="SVGID_1_" d="M0 0h193v185H0z"/></defs><clipPath id="SVGID_2_"><use xlink:href="#SVGID_1_" overflow="visible"/></clipPath><g clip-path="url(#SVGID_2_)"><path d="M170.1 136.7h2.4v60.8h-2.4z" class="st1"/><path d="M138.1 49s-3.6 30.1 3.7 46.9c7.3 16.8 4.3 42.1-5.8 57.2s6.7 60.5.4 62.3c-6.4 1.8-77.7-79.5-56.8-118.1S138.1 49 138.1 49z" class="st2"/><path d="M110.1 186.7s-11.2-38.3-7.5-52.6c1.8-7.1-6.7-16.3 2.4-16.3 9.9 0 11.3 17.6 10.7 37.6-.6 19.5-2.5 34.5-2.5 34.5l-5.1.3 2-3.5z" class="st3"/><path d="M117.4 131.9c4.6 5.5 5 16.7-2.6 19.1-2.8 13.5-5.6 25-3.5 33.4 3.7 15-33.6 9.8-36.7 2.6-6.6-15.5 2.2-58.8 2.2-58.8l27.4-10.3c0-.1 10.8 11.1 13.2 14z" class="st1"/><path d="M91.5 97s2 16.2-3.1 20.2-8.3 8.6-8.3 8.6 8 9 26.3 8.1c14.5-.7.2-10.1-1.8-15.1-3.3-8.3 4.6-16.7 4.6-16.7L91.5 97z" class="st4"/><ellipse cx="132.3" cy="74.8" class="st5" rx="17.7" ry="12" transform="rotate(-73.685 132.32 74.828)"/><path d="M140 27s4.3 18.6 2.9 28.1c-1.2 8.2-6 12.9-5.9 22.4.1 7.3-16.2 33.8-26.8 34.7-10.6 1-19.6-3.6-25.6-16.5s-6.5-26.6-6.4-40.3c.1-13.7 11.9-42 23.3-41.8 11.5.1 29.4-4.5 38.5 13.4z" class="st4"/><path d="M104.1 112.1c-4.6-.6-8.7-2.6-12.3-6.3 0 .7-.1 1.5-.1 2.2 3.5 5.4 7.8 8.5 12.7 9.8-.6-2-.7-3.9-.3-5.7z" class="st6"/><path d="M87.1 129.4c-2.9-1.3-5-8.1-5-8.1s0-8.6-8.7 7.2c-5.9 10.6-15.2 35.6-11.2 48.3 3.9 12.7 17.6 6.8 18.9-13 .9-17-2.2-28.2 6-34.4z" class="st3"/><path d="M104.5 1.1S94.3-3.9 75.7 7 60.7 29.8 58 38.4C55.3 47 28.8 55.6 21.6 72s-3.1 21.9 1.9 34.1 4.1 30.4-12.3 44.1c-16.4 13.6-11.4 26.3-6.4 36.3 5 10-6.8 23.2 7.3 30.4 14.1 7.3 75.5 19.1 63.6-5.5-25.4-52.7-1.3-42.9 12.3-71.3 9.5-20-.5-47.2-2.7-63.1C83 61.1 108.2 46.2 108 24.3c9.5-9.5-3.5-23.2-3.5-23.2z" class="st2"/><linearGradient id="SVGID_3_" x1="-846.531" x2="-815.299" y1="-3023.957" y2="-3014.889" gradientTransform="scale(-1 1) rotate(-34.596 4423.27 -2677.78)" gradientUnits="userSpaceOnUse"><stop offset="0" stop-color="#fff"/><stop offset="1" stop-color="#eff0f8"/></linearGradient><path fill="url(#SVGID_3_)" d="M113.8 3.9C96.1 5.7 81.9 29.3 79.7 49.3L72 44.8S82.9.3 111.1.3c1.9 0 7.3.5 9.1 2.3-3.2.4-6.4 1.3-6.4 1.3z"/><ellipse cx="72.8" cy="61.9" class="st5" rx="17.7" ry="12" transform="rotate(-85.952 72.815 61.907)"/><linearGradient id="SVGID_4_" x1="-3899.566" x2="-3882.18" y1="-22.248" y2="-17.2" gradientTransform="scale(-1 1) rotate(-4.048 -834.345 -54073.07)" gradientUnits="userSpaceOnUse"><stop offset="0" stop-color="#fff"/><stop offset="1" stop-color="#eff0f8"/></linearGradient><path fill="url(#SVGID_4_)" d="M75.8 61.8c-.5 7-4.8 12.4-9.5 12.1s-8.2-6.3-7.7-13.3c.5-7 4.8-12.4 9.5-12.1s8.2 6.3 7.7 13.3z"/><path d="M82.3 109.2c-.1.3-1.4.8-5.3.3-4.6-.7-5.9-1.8-5.9-1.8l-2.9 11.4s-11.1 36.1-7.4 50.5c1.8 7.1 6.8 18.2 13.3 11.9 5.5-5.3 7-9.1 4.8-28.5-1.8-17.3 3.8-42.9 3.4-43.8z" class="st3"/><path d="M106.6 24.3s15 5.5 26.3 20.4c7.4 11.3 6.6 19.9 6.4 21.3 8.6-1.9 16.2-31.4 2.6-49.6C128.7-1.3 113.7.3 102.2 8s4.4 16.3 4.4 16.3z" class="st2"/><ellipse cx="138.7" cy="112.9" class="st1" rx="14.8" ry="8.3" transform="rotate(-72.049 138.672 112.882)"/><path fill="#cccedb" d="m180.7 129.4-1.3 2.5c-1.5 2.8-4.9 3.9-7.7 2.4L152.1 124c-3.5-1.8-4.9-6.2-3-9.8 1.8-3.4 6-4.7 9.5-3l19.8 10.4c2.7 1.6 3.7 5 2.3 7.8z"/><path d="M170.6 116.6c-.6-.3-1.4-.1-1.8.6l-6.3 12c-.3.6-.1 1.4.6 1.8l1.5.8 7.5-14.3-1.5-.9z" class="st1"/><path d="m185.6 138.3 3.8-7.3c1-1.9.3-4.3-1.7-5.3l-15.6-8.2-7.5 14.3 15.6 8.2c2 .9 4.4.2 5.4-1.7zm-28.9-14.1c-.2 0-.4-.2-.4-.4l-1.6-11c0-.2.1-.5.4-.5.2 0 .5.1.5.4l1.6 11c0 .3-.2.5-.5.5.1 0 0 0 0 0zm4.4 2.3c-.2 0-.4-.2-.4-.4l-1.6-11c0-.2.1-.5.4-.5.2 0 .5.1.5.4l1.6 11c0 .2-.2.5-.5.5.1 0 .1 0 0 0z" class="st2"/><path d="m164.4 122-11.1-.2c-.2 0-.4-.2-.4-.4s.2-.4.4-.4l11.1.2c.2 0 .4.2.4.4.1.2-.1.4-.4.4zm-2.7-4.1-11.1-.2c-.2 0-.4-.2-.4-.4s.2-.4.4-.4l11.1.2c.2 0 .4.2.4.4s-.2.4-.4.4zm12.4 23.5h-4.7c-1.4 0-2.6-1.2-2.6-2.6v-4.7c0-1.4 1.2-2.6 2.6-2.6h4.7c1.4 0 2.6 1.2 2.6 2.6v4.7c0 1.5-1.1 2.6-2.6 2.6zm12.4-4-3-1.4c-.7-.3-.9-1.1-.6-1.7l1.4-3c.3-.7 1.1-.9 1.7-.6l3 1.4c.7.3.9 1.1.6 1.7l-1.4 3c-.3.6-1 .9-1.7.6z" class="st2"/><path d="M83.5 85.4c-2.5-3.7-1.7-13.1-5.2-16.3-3.6-3.3-4.3 1.2-6.5 7.7-2 5.9-.6 12.5.3 16.5.8 4-.3 14.7-.3 14.7s6.1 4 10.3 1.5c.5-10.5 9.2-12.8 1.4-24.1z" class="st4"/><path d="M74.2 88.5s-2.3-2.3-.8-7.1c.7-2.5-1.7-3.1-3.4 1.7s1.7 11.3 3.4 11.3.8-5.9.8-5.9z" class="st4"/><path d="M101.9 52.4c2.6-1 9.5-2.6 17.6 2.4.5.3.6.9.4 1.3v.1c-.3.5-.8.7-1.3.5-2.6-1.2-10.4-4.5-15.9-2.4-.4.2-.9 0-1.2-.4-.5-.5-.2-1.3.4-1.5zm39.2 11.8c-1.2-2.2-4.7-7-11.3-6.7-.4 0-.7.4-.7.9v.1c0 .5.3 1 .6 1.1 2 .3 7.7 1.4 10.3 5.9.2.4.6.5.8.3.5-.4.6-1.1.3-1.6z" class="st2"/><linearGradient id="SVGID_5_" x1="-1749.845" x2="-1749.845" y1="-539.052" y2="-539.052" gradientTransform="rotate(23.992 -2245.887 4177.657)" gradientUnits="userSpaceOnUse"><stop offset="0" stop-color="#fff"/><stop offset="1" stop-color="#eff0f8"/></linearGradient><path d="M114.1 66.9c-5.8 0-11-3.5-11.3-3.7-.2-.1-.2-.3-.1-.5s.3-.2.5-.1c.1.1 8 5.4 15 2.9.2-.1.4 0 .4.2.1.2 0 .4-.2.4-1.4.6-2.8.8-4.3.8zm20.8 4.9c-4.1 0-7.5-2.9-7.6-3.1-.1-.1-.1-.3 0-.5.1-.1.3-.1.5 0 0 0 4.8 4.2 9.7 2.5.2-.1.4 0 .4.2.1.2 0 .4-.2.4-1 .3-1.9.5-2.8.5z" class="st2"/><path d="M113.2 84.8c3.2 2.6 8.8 4.8 10.7 3.4 0 0-.7 3.7-5.6 2s-5.1-5.4-5.1-5.4z" class="st6"/><path d="M171 158.9c-14.5-.3-24.8-4.2-30.6-11.7-7.2-9.3-4.7-20.6-4.6-21l2.4.5-1.2-.3 1.2.3c0 .1-2.4 10.6 4.2 19 5.3 6.9 15 10.5 28.7 10.8l-.1 2.4z" class="st1"/><path d="M169.3 197.4c-.2 0-.3-.1-.4-.3l-5.2-11.9c-2.8-6.2-.7-13.6 4.9-17.5l17.7-12.3c3-2.1 5-5.3 5.6-8.9.6-3.6-.3-7.2-2.5-10.2l-1.1-1.1c-.2-.2-.2-.4 0-.6.2-.2.4-.2.6 0l1.1 1.1c2.4 3.1 3.3 7 2.7 10.9-.6 3.9-2.7 7.2-6 9.5L169 168.4c-5.3 3.6-7.2 10.5-4.6 16.4l5.2 11.9c.1.2 0 .5-.2.6 0 .1 0 .1-.1.1z" class="st2"/></g></svg>
